<?xml version="1.0" standalone="no"?>
<!DOCTYPE svg PUBLIC "-//W3C//DTD SVG 20010904//EN"
 "http://www.w3.org/TR/2001/REC-SVG-20010904/DTD/svg10.dtd">
<svg version="1.0" xmlns="http://www.w3.org/2000/svg"
 width="1247.000000pt" height="1185.000000pt" viewBox="0 0 1247.000000 1185.000000"
 preserveAspectRatio="xMidYMid meet">

<g transform="translate(0.000000,1185.000000) scale(0.100000,-0.100000)"
fill="#000000" stroke="none">
<path d="M6045 11509 c-483 -42 -917 -191 -1235 -423 -35 -26 -94 -54 -165
-78 -478 -165 -878 -544 -1240 -1177 -412 -721 -709 -1645 -905 -2816 -91
-546 -145 -1054 -182 -1720 -17 -311 -17 -1427 0 -1675 44 -632 119 -1084 244
-1470 107 -333 248 -605 370 -715 67 -60 91 -59 98 8 l5 48 70 -62 c78 -70
218 -176 253 -192 31 -14 28 -24 -12 -41 -83 -35 -211 -133 -257 -198 l-20
-28 87 -40 87 -40 38 35 c92 83 183 122 313 136 l89 9 76 -68 c163 -146 346
-272 503 -347 103 -48 152 -63 162 -47 3 6 -11 48 -33 94 -48 104 -91 222
-130 357 -40 136 -40 146 8 91 21 -25 42 -42 45 -39 3 3 -3 28 -14 57 -11 28
-16 53 -12 55 13 8 113 29 116 26 2 -2 40 -76 83 -164 97 -193 159 -307 267
-485 135 -222 122 -207 190 -219 33 -6 61 -9 63 -8 2 2 -30 55 -70 118 -41 63
-88 141 -107 174 -18 33 -47 83 -65 110 -57 87 -132 236 -179 357 -25 65 -46
122 -46 127 0 6 19 15 43 21 99 26 373 123 507 181 80 34 168 71 195 83 73 31
71 29 99 114 45 134 67 265 73 440 3 89 7 162 8 162 2 0 51 -22 109 -50 206
-96 358 -130 577 -130 237 0 367 28 595 129 l132 58 4 -186 c5 -188 23 -311
66 -442 l17 -52 185 -79 c295 -125 399 -165 531 -204 68 -20 127 -40 131 -43
11 -10 -65 -197 -141 -346 -77 -151 -169 -315 -244 -435 -26 -41 -47 -78 -47
-83 0 -8 61 -2 103 9 32 10 269 430 402 714 32 69 62 129 66 134 12 13 119
-21 119 -38 0 -7 -7 -35 -15 -61 -8 -27 -13 -51 -11 -53 3 -2 23 22 47 53 23
31 47 54 53 52 6 -2 37 -12 69 -21 56 -16 59 -18 52 -44 -9 -39 -130 -321
-182 -426 -50 -99 -50 -122 -1 -112 99 20 437 214 631 363 88 66 103 74 130
69 48 -9 149 -60 189 -95 20 -17 40 -31 46 -31 8 0 157 67 170 76 10 7 -37 57
-102 108 l-75 59 72 54 c525 393 823 954 961 1814 101 629 100 1298 -5 2339
-141 1407 -334 2470 -584 3225 -188 571 -461 1139 -741 1549 -540 787 -1245
1251 -2064 1357 -181 23 -504 32 -665 18z m795 -294 c185 -45 375 -128 544
-240 94 -62 108 -81 29 -42 -88 45 -341 137 -496 182 -136 39 -316 78 -462
101 l-50 8 40 7 c65 12 324 1 395 -16z m-148 -451 c320 -44 638 -203 956 -477
81 -70 109 -98 85 -84 -270 157 -727 384 -755 375 -5 -2 19 -23 54 -48 187
-131 406 -340 541 -518 43 -56 76 -102 73 -102 -3 0 -54 36 -114 80 -235 172
-595 370 -892 490 -141 56 -131 64 42 30 122 -23 235 -59 337 -106 41 -19 76
-32 78 -30 6 6 -91 70 -225 149 -125 75 -331 179 -437 222 -38 16 -74 33 -80
37 -14 12 203 0 337 -18z m-492 -464 c332 -40 624 -164 875 -370 108 -89 283
-273 365 -385 8 -11 -13 5 -48 35 -244 213 -422 334 -672 459 -196 97 -363
162 -585 227 l-150 43 65 1 c36 0 104 -5 150 -10z m-2085 -306 c-173 -149
-276 -264 -343 -385 -34 -59 -30 -80 5 -35 95 120 297 225 483 251 44 6 43 5
-45 -43 -157 -84 -315 -200 -403 -295 -60 -67 -297 -387 -359 -487 -29 -47
-57 -92 -62 -100 -15 -23 85 272 125 369 80 194 229 451 340 589 19 23 22 32
12 32 -27 0 -112 -51 -171 -102 -32 -28 -60 -48 -62 -46 -2 2 14 25 36 50 49
57 168 139 246 168 45 17 191 55 223 59 3 0 -8 -11 -25 -25z m1580 -685 c140
-8 298 -9 475 -3 146 4 339 8 430 8 l165 0 85 -35 c124 -52 209 -104 360 -225
170 -135 478 -443 593 -593 239 -310 496 -760 627 -1096 119 -306 266 -865
309 -1175 24 -167 54 -607 67 -955 l6 -180 -87 -245 c-48 -135 -134 -380 -190
-545 -107 -315 -107 -316 -188 -490 -131 -285 -328 -504 -749 -832 -319 -249
-563 -396 -928 -560 -190 -86 -267 -104 -460 -110 -266 -9 -364 15 -673 165
-325 158 -508 271 -787 487 -444 344 -638 559 -778 862 -76 164 -124 291 -172
448 -23 76 -59 185 -80 240 -36 98 -38 108 -51 311 -18 276 -19 1326 -1 1579
52 737 162 1357 313 1763 268 723 686 1131 1219 1191 89 10 153 9 495 -10z
m-1450 -101 c-76 -61 -227 -213 -295 -298 -262 -329 -524 -885 -706 -1497 -26
-89 -50 -161 -52 -159 -6 6 36 230 74 396 51 220 96 370 160 538 192 498 449
835 774 1011 41 22 77 41 80 41 3 -1 -13 -15 -35 -32z m4465 -1098 c83 -261
205 -723 196 -744 -2 -6 -5 -3 -5 6 -1 10 -34 118 -75 240 -59 176 -158 534
-201 728 -12 53 38 -82 85 -230z m596 -13 c28 -72 28 -69 8 -65 -11 2 -23 26
-35 73 -29 112 -19 109 27 -8z m-341 -407 c64 -314 102 -621 110 -875 4 -118
2 -140 -6 -105 -6 25 -31 133 -56 240 -26 107 -46 211 -45 230 1 20 -18 217
-43 439 -25 222 -45 411 -44 420 2 25 45 -154 84 -349z m383 287 c2 -12 -3
-17 -17 -17 -15 0 -21 6 -21 21 0 25 33 22 38 -4z m-274 -6674 c-9 -21 -23
-56 -32 -78 -20 -52 -18 -50 -47 -37 l-25 12 57 70 c31 38 59 70 60 70 2 0 -4
-17 -13 -37z"/>
<path d="M8149 7541 c-52 -52 -34 -137 35 -166 104 -44 189 89 109 170 -38 37
-104 35 -144 -4z m113 -28 c22 -20 23 -61 1 -85 -34 -38 -103 -11 -103 40 0
54 62 81 102 45z"/>
<path d="M4495 7439 c-256 -31 -426 -115 -596 -296 -64 -68 -136 -163 -124
-163 3 0 32 18 64 40 75 51 303 177 362 200 99 40 396 60 601 41 76 -7 252
-38 435 -76 170 -36 323 -65 340 -65 27 0 34 5 39 25 9 37 -21 109 -61 144
-54 47 -221 100 -435 137 -114 19 -505 28 -625 13z"/>
<path d="M7340 7443 c-238 -24 -500 -92 -574 -148 -39 -30 -69 -96 -64 -141 2
-24 8 -30 33 -32 17 -2 172 27 345 63 354 74 498 90 695 81 204 -9 292 -23
365 -57 81 -38 255 -135 335 -188 33 -22 62 -38 64 -35 7 7 -107 149 -157 196
-111 104 -251 190 -363 222 -122 35 -502 57 -679 39z"/>
<path d="M8014 7171 c-34 -15 -64 -60 -64 -98 0 -50 54 -103 105 -103 52 0
105 53 105 104 0 69 -83 124 -146 97z m96 -74 c13 -24 13 -28 -6 -54 -28 -37
-70 -38 -97 -1 -17 23 -19 31 -9 53 23 50 84 51 112 2z"/>
<path d="M4460 6814 c-226 -44 -403 -155 -511 -321 -40 -61 -44 -73 -44 -128
1 -81 26 -126 119 -212 237 -218 674 -337 1022 -278 145 25 268 70 444 163 91
48 174 92 185 98 18 12 18 13 -4 70 -39 105 -101 195 -195 289 -226 224 -453
313 -821 320 -93 2 -181 1 -195 -1z m320 -164 c65 -12 79 -29 72 -89 -6 -59
-25 -89 -69 -108 -51 -21 -95 -10 -133 34 -29 33 -32 41 -28 85 9 84 40 100
158 78z m-269 -41 c-44 -61 -66 -132 -65 -219 1 -143 74 -259 202 -322 61 -30
75 -33 162 -33 84 0 102 3 158 29 157 72 251 259 208 416 -8 30 -13 57 -11 59
8 7 120 -64 189 -119 81 -66 196 -211 196 -247 0 -13 -122 -91 -194 -123 -77
-35 -263 -85 -369 -99 -296 -40 -594 36 -806 206 -88 70 -145 145 -135 177 3
12 27 52 53 91 70 102 178 172 326 210 28 7 65 14 83 14 l32 1 -29 -41z"/>
<path d="M7475 6806 c-277 -46 -430 -118 -604 -282 -124 -116 -219 -257 -237
-350 l-6 -31 152 -82 c176 -95 264 -132 399 -167 238 -62 549 -35 808 70 178
73 342 195 397 296 25 45 28 60 24 115 -3 57 -9 72 -52 135 -92 134 -230 232
-396 281 -95 27 -360 36 -485 15z m64 -185 c13 -23 4 -100 -15 -128 -21 -33
-79 -56 -120 -48 -48 9 -94 65 -94 116 0 46 11 52 120 73 73 14 97 11 109 -13z
m371 8 c156 -43 284 -139 340 -253 29 -60 22 -84 -43 -153 -203 -215 -551
-320 -894 -269 -204 30 -418 110 -521 194 l-34 28 51 76 c55 82 131 157 220
217 61 42 121 74 126 69 2 -2 -3 -28 -11 -58 -43 -160 40 -337 194 -412 61
-30 75 -33 162 -33 83 0 103 4 153 27 72 34 112 67 155 126 35 50 72 155 72
206 0 57 -30 150 -66 204 l-34 52 28 0 c15 0 61 -9 102 -21z"/>
<path d="M6499 6329 c-47 -94 -60 -250 -38 -492 6 -67 19 -160 30 -207 27
-115 86 -236 106 -216 4 4 -3 98 -15 209 -28 245 -43 541 -35 660 5 76 4 87
-10 87 -9 0 -26 -18 -38 -41z"/>
<path d="M5583 4988 c-77 -112 -80 -260 -7 -333 42 -42 98 -53 169 -31 59 19
108 20 138 5 12 -7 51 -40 87 -74 105 -100 178 -126 256 -89 19 9 67 47 107
84 40 37 82 72 94 78 30 16 73 15 141 -4 97 -27 175 9 203 95 20 60 6 164 -32
239 -39 75 -66 95 -55 41 11 -57 19 -226 12 -253 -3 -14 -17 -33 -31 -42 -22
-14 -29 -14 -79 0 -123 36 -229 8 -301 -79 -20 -25 -56 -57 -81 -71 -41 -24
-47 -25 -76 -13 -18 7 -61 41 -97 75 -37 34 -85 71 -108 83 -50 25 -126 28
-196 6 -42 -13 -53 -13 -82 -1 -27 12 -35 22 -41 51 -8 43 1 174 16 225 15 53
-4 57 -37 8z"/>
<path d="M4900 4089 c-51 -21 -100 -84 -100 -129 0 -11 11 -32 25 -45 22 -23
32 -25 108 -25 64 0 118 -9 218 -34 620 -159 1367 -159 1989 -1 110 27 154 34
218 32 73 -2 83 0 106 22 34 32 34 76 1 121 -33 44 -73 70 -110 70 -37 -1 -57
-15 -78 -57 -19 -35 -22 -36 -312 -93 -254 -49 -458 -71 -721 -77 -336 -8
-631 18 -934 83 -63 13 -124 24 -134 24 -37 0 -156 41 -156 54 0 18 -41 54
-70 60 -14 3 -36 1 -50 -5z"/>
</g>
</svg>
